<svg width="21" height="23" viewBox="0 0 21 23" fill="none" xmlns="http://www.w3.org/2000/svg">
<g clip-path="url(#clip0)">
<path d="M10.5 0.958374C9.80381 0.958374 9.13613 1.26127 8.64384 1.80044C8.15156 2.33961 7.875 3.07088 7.875 3.83337V11.5C7.875 12.2625 8.15156 12.9938 8.64384 13.533C9.13613 14.0721 9.80381 14.375 10.5 14.375C11.1962 14.375 11.8639 14.0721 12.3562 13.533C12.8484 12.9938 13.125 12.2625 13.125 11.5V3.83337C13.125 3.07088 12.8484 2.33961 12.3562 1.80044C11.8639 1.26127 11.1962 0.958374 10.5 0.958374V0.958374Z" stroke="#FF8281" stroke-width="2" stroke-linecap="round" stroke-linejoin="round"/>
<path d="M16.625 9.58331V11.5C16.625 13.2791 15.9797 14.9854 14.831 16.2435C13.6824 17.5015 12.1245 18.2083 10.5 18.2083C8.87555 18.2083 7.31763 17.5015 6.16897 16.2435C5.02031 14.9854 4.375 13.2791 4.375 11.5V9.58331" stroke="#FF8281" stroke-width="2" stroke-linecap="round" stroke-linejoin="round"/>
<path d="M10.5 18.2083V22.0416" stroke="#FF8281" stroke-width="2" stroke-linecap="round" stroke-linejoin="round"/>
<path d="M7 22.0417H14" stroke="#FF8281" stroke-width="2" stroke-linecap="round" stroke-linejoin="round"/>
</g>
<defs>
<clipPath id="clip0">
<rect width="21" height="23" fill="white"/>
</clipPath>
</defs>
</svg>
