<svg width="25" height="25" viewBox="0 0 25 25" fill="none" xmlns="http://www.w3.org/2000/svg">
<path d="M2.08325 3.125H8.33325C9.43832 3.125 10.4981 3.56399 11.2795 4.34539C12.0609 5.12679 12.4999 6.1866 12.4999 7.29167V21.875C12.4999 21.0462 12.1707 20.2513 11.5846 19.6653C10.9986 19.0792 10.2037 18.75 9.37492 18.75H2.08325V3.125Z" stroke="#B885FC" stroke-width="2" stroke-linecap="round" stroke-linejoin="round"/>
<path d="M22.9167 3.125H16.6667C15.5616 3.125 14.5018 3.56399 13.7204 4.34539C12.939 5.12679 12.5 6.1866 12.5 7.29167V21.875C12.5 21.0462 12.8292 20.2513 13.4153 19.6653C14.0013 19.0792 14.7962 18.75 15.625 18.75H22.9167V3.125Z" stroke="#B885FC" stroke-width="2" stroke-linecap="round" stroke-linejoin="round"/>
</svg>
